<?xml version="1.0" encoding="UTF-8"?>
<svg version="1.1" xmlns="http://www.w3.org/2000/svg" width="512" height="512">
<path d="M0 0 C0.69333822 -0.00350607 1.38667643 -0.00701215 2.1010249 -0.01062447 C4.41762678 -0.01990703 6.73397553 -0.01502336 9.05058765 -0.01015663 C10.73099735 -0.01389449 12.41140531 -0.01849655 14.09181052 -0.02388728 C18.7046898 -0.03611611 23.31749654 -0.03585694 27.93038833 -0.03349853 C32.90737613 -0.03309033 37.88434068 -0.04412985 42.86131763 -0.05361366 C52.61076169 -0.07022434 62.36018157 -0.07572325 72.10963859 -0.07683842 C80.03557422 -0.07778892 87.96150186 -0.08189934 95.88743496 -0.08823967 C118.3630056 -0.10585277 140.83855715 -0.11507851 163.31413474 -0.11357872 C165.13151028 -0.11345885 165.13151028 -0.11345885 166.98560047 -0.11333656 C168.19866506 -0.1132548 169.41172965 -0.11317304 170.66155378 -0.1130888 C190.31774186 -0.11227603 209.97385329 -0.13141133 229.63001921 -0.1596133 C249.81684575 -0.18834787 270.00363492 -0.20215325 290.19048244 -0.20042574 C301.522207 -0.19976201 312.85385123 -0.20524701 324.18555737 -0.22678185 C333.83445671 -0.24500122 343.4832393 -0.24933477 353.13214841 -0.235763 C358.05313795 -0.22923703 362.97390353 -0.22910281 367.89487171 -0.2464695 C372.40483791 -0.26222168 376.91440299 -0.25931468 381.42435954 -0.24190123 C383.05086898 -0.23883605 384.67740851 -0.24244549 386.30388244 -0.25362138 C401.61074146 -0.35178415 413.55679345 2.6635716 425.02295399 13.32367516 C431.89556557 20.50459081 436.91139092 29.66711803 436.93451881 39.77645683 C436.93897666 40.68270349 436.9434345 41.58895015 436.94802743 42.52265882 C436.94775089 44.01037346 436.94775089 44.01037346 436.94746876 45.52814293 C436.95114545 46.58481745 436.95482213 47.64149198 436.95861024 48.73018694 C436.9696527 52.28283893 436.97349191 55.83546169 436.97729969 59.38812828 C436.98356399 61.9307928 436.99021076 64.47345641 436.99721241 67.016119 C437.01644401 74.65565752 437.02704212 82.29519091 437.0359402 89.93474746 C437.0403263 93.53544497 437.04569235 97.13614103 437.05092907 100.73683739 C437.06794145 112.71236173 437.08243386 124.68788516 437.08967781 136.66341972 C437.0915876 139.77022363 437.09350795 142.87702753 437.09546375 145.98383141 C437.09594749 146.75598152 437.09643123 147.52813162 437.09692963 148.32368022 C437.10522333 160.82162723 437.13054901 173.31947831 437.16304443 185.81738347 C437.19616032 198.65903088 437.21413074 211.50062964 437.21732205 224.34231997 C437.21948318 231.54821692 437.22817323 238.75397409 437.25378323 245.95982933 C437.2778353 252.74289299 437.28128755 259.52566229 437.27102184 266.30877495 C437.27052692 268.79353483 437.27683431 271.27830717 437.29057789 273.7630291 C437.38089237 291.0642829 437.10065717 304.84431414 424.80029774 318.25726891 C415.30888051 326.69881338 404.96211789 331.32786543 392.21939564 331.41548729 C391.13413593 331.42527611 390.04887623 331.43506493 388.93072987 331.44515038 C387.16774555 331.45378357 387.16774555 331.45378357 385.36914539 331.46259117 C384.1198122 331.47249077 382.87047901 331.48239037 381.58328724 331.49258995 C378.17053343 331.51870316 374.75780208 331.54059573 371.34501028 331.56059194 C367.77355231 331.58252241 364.20213592 331.60987642 360.63071156 331.63664818 C353.87356761 331.68647988 347.11640047 331.73145387 340.35921133 331.77467054 C332.66390701 331.82412451 324.96864442 331.87901228 317.27338052 331.93435013 C301.4490582 332.04802392 285.62469744 332.15489451 269.80029774 332.25726891 C270.01105442 332.94107628 270.2218111 333.62488365 270.43895435 334.32941246 C272.43196173 340.79999855 274.41853887 347.27252787 276.39805984 353.74725151 C277.41577228 357.07524405 278.43588452 360.40245957 279.46167469 363.72797203 C280.64310054 367.5584265 281.81373334 371.39210713 282.98389149 375.22601891 C283.35058445 376.40966026 283.71727741 377.59330162 284.09508228 378.8128109 C289.00518766 394.98214678 289.00518766 394.98214678 285.95654774 403.14008141 C283.47445863 407.68498781 279.65951462 410.63752994 274.80029774 412.25726891 C272.70854561 412.35738521 270.61371392 412.39663908 268.51958179 412.40443993 C267.20310658 412.41159523 265.88663136 412.41875053 264.53026295 412.42612267 C263.06778455 412.4289629 261.60530589 412.43167464 260.14282703 412.43427086 C258.60533971 412.44053611 257.06785391 412.44718297 255.53036976 412.45418358 C250.47842938 412.47521692 245.42648872 412.48558446 240.37451649 412.49555016 C238.63525152 412.49959781 236.89598671 412.50371474 235.15672207 412.50790024 C226.98643463 412.52694937 218.81615622 412.54118166 210.64585084 412.54951221 C201.21424056 412.55928763 191.78286477 412.5856162 182.35133713 412.6260131 C175.06121994 412.65616677 167.77117001 412.67098032 160.48099166 412.67429322 C156.12680267 412.67664435 151.77286429 412.68561292 147.41874218 412.71075439 C143.32206929 412.7340275 139.22581216 412.73827158 135.12909031 412.72799301 C133.62707798 412.72749737 132.12504523 412.73382628 130.62309551 412.74754906 C128.56888819 412.76526481 126.51617359 412.75816574 124.46196461 412.7450161 C122.73944745 412.74859863 122.73944745 412.74859863 120.98213196 412.75225353 C116.00230547 411.97756278 112.91028164 409.45975147 109.55029774 405.81976891 C105.57698928 400.00171009 105.14866766 395.08202241 106.33179188 388.13765526 C106.58050037 387.08730598 106.82920887 386.03695671 107.08545399 384.95477867 C107.36574451 383.75406227 107.64603504 382.55334587 107.93481922 381.31624413 C108.24105213 380.03994637 108.54728504 378.76364861 108.86279774 377.44867516 C109.17736006 376.11362476 109.49123277 374.77841171 109.80444813 373.44304466 C110.6261586 369.94801109 111.45715293 366.45525073 112.2901659 362.96289635 C113.14035784 359.39113402 113.98166016 355.81727997 114.82373524 352.24359703 C116.47394504 345.24608881 118.13397811 338.25096048 119.80029774 331.25726891 C119.17229645 331.26003428 118.54429516 331.26279966 117.89726353 331.26564884 C102.57128544 331.33208722 87.24535196 331.38163595 71.9192667 331.41270542 C64.50748724 331.42813222 57.09580429 331.44914094 49.6840868 331.48358727 C43.21920587 331.51361863 36.75439487 331.53287429 30.28944612 331.53953439 C26.8706602 331.54342356 23.45207427 331.5524746 20.03335285 331.57445908 C16.20392163 331.5963672 12.37489915 331.59923017 8.54541492 331.59784508 C6.87089252 331.61402382 6.87089252 331.61402382 5.16254139 331.6305294 C-9.29693604 331.57426604 -21.71779664 327.50624329 -32.19970226 317.25726891 C-44.32620086 302.83872881 -43.7815351 288.16122969 -43.71728039 270.20233727 C-43.72270602 267.6568671 -43.72983115 265.11140007 -43.73852062 262.56593895 C-43.75481877 256.391529 -43.75249977 250.21737414 -43.74087006 244.04296105 C-43.73180712 239.02187249 -43.73062404 234.00083837 -43.73496532 228.97974396 C-43.73557826 228.26295187 -43.73619119 227.54615977 -43.73682269 226.80764671 C-43.7381017 225.35114815 -43.73939855 223.8946496 -43.74071306 222.43815107 C-43.75209669 208.80716703 -43.73903966 195.17629091 -43.71751159 181.54532457 C-43.69963877 169.86746493 -43.7027505 158.18976436 -43.72118664 146.51190758 C-43.74262605 132.92550068 -43.75100228 119.33918813 -43.73873758 105.75276667 C-43.73746349 104.30217049 -43.736206 102.8515743 -43.73496532 101.40097809 C-43.73434822 100.6873971 -43.73373112 99.97381612 -43.73309532 99.23861147 C-43.7296519 94.22720324 -43.73544885 89.21585523 -43.74488354 84.20445633 C-43.75731826 77.45162058 -43.74837841 70.69913032 -43.72530651 63.94630814 C-43.72003065 61.47242288 -43.72151386 58.99851229 -43.73035717 56.52463722 C-43.74134003 53.13939593 -43.72751478 49.75510578 -43.70763683 46.36992455 C-43.71655972 45.39850468 -43.72548261 44.42708482 -43.73467588 43.42622799 C-43.60284372 31.79647306 -39.1192483 21.54039551 -31.16454601 13.09711266 C-22.39554313 4.82300941 -12.16820109 0.01393477 0 0 Z M-14.19970226 31.25726891 C-17.60992938 36.18827298 -19.32113933 40.61765233 -19.33113003 46.58460426 C-19.33497117 47.44803357 -19.33881232 48.31146288 -19.34276986 49.20105672 C-19.34190338 50.14501262 -19.3410369 51.08896853 -19.34014416 52.06152916 C-19.34311528 53.06793977 -19.3460864 54.07435037 -19.34914756 55.11125827 C-19.35783971 58.4935957 -19.35934325 61.87589775 -19.36083508 65.25824547 C-19.36546288 67.6793227 -19.37048748 70.10039919 -19.37588024 72.52147484 C-19.38900976 79.10627503 -19.39548698 85.69106787 -19.3998909 92.27587795 C-19.40265481 96.38866174 -19.40689245 100.50144318 -19.41139507 104.61422539 C-19.42358674 116.00471537 -19.43388618 127.39520348 -19.43727016 138.78569984 C-19.43748973 139.51454684 -19.4377093 140.24339384 -19.43793552 140.99432711 C-19.43815379 141.72490319 -19.43837207 142.45547927 -19.43859696 143.20819402 C-19.43904043 144.68858226 -19.43948699 146.16897051 -19.43993664 147.64935875 C-19.44015807 148.38368011 -19.4403795 149.11800147 -19.44060764 149.87457499 C-19.44455483 161.77058643 -19.46200688 173.66653658 -19.48529616 185.56252435 C-19.50902221 197.78038613 -19.52147259 209.99821717 -19.52263808 222.21610236 C-19.52355415 229.07420105 -19.52928921 235.93221989 -19.5474577 242.79029655 C-19.56448878 249.2417037 -19.56610191 255.69299977 -19.55731869 262.14442444 C-19.55654742 264.51153087 -19.56090275 266.87864539 -19.57077694 269.24573135 C-19.58347285 272.47902642 -19.57763202 275.71178274 -19.56719494 278.94507408 C-19.57525134 279.8801071 -19.58330775 280.81514012 -19.59160829 281.77850747 C-19.54174457 288.39079159 -18.7119964 294.24041361 -14.33251476 299.49945641 C-13.66993664 300.03828453 -13.00735851 300.57711266 -12.32470226 301.13226891 C-11.66728039 301.68656578 -11.00985851 302.24086266 -10.33251476 302.81195641 C-5.73935686 305.92453594 -1.86483607 306.50812216 3.64013863 306.51453781 C4.31886055 306.51804389 4.99758247 306.52154996 5.69687173 306.52516228 C7.97575742 306.53448108 10.25438783 306.5295518 12.53328419 306.52469444 C14.18182019 306.52843046 15.83035442 306.53303179 17.47888583 306.53842509 C22.01279397 306.55067646 26.54662844 306.55039211 31.08054936 306.54803634 C35.96887899 306.54762871 40.85718484 306.55866213 45.74550343 306.56815147 C55.32409827 306.58477413 64.90266849 306.59026159 74.48127655 306.59137623 C82.26618077 306.5923261 90.05107686 306.59643333 97.83597851 306.60277748 C119.90092795 306.62039329 141.96585792 306.62961581 164.03081445 306.62811653 C165.22068387 306.62803662 166.4105533 306.62795671 167.63647938 306.62787437 C168.8277993 306.62779261 170.01911921 306.62771085 171.24653973 306.62762661 C190.55636537 306.6268136 209.86611303 306.64595421 229.17591611 306.67415111 C248.99653611 306.70286586 268.81711806 306.71669218 288.63775939 306.71496356 C299.7681779 306.71429917 310.89851466 306.71981273 322.02891445 306.74131966 C331.50523567 306.7595129 340.98143809 306.76389406 350.45776919 306.75030081 C355.29318947 306.74376181 360.12838169 306.74368759 364.9637804 306.76100731 C369.39096785 306.77670185 373.81774572 306.77391151 378.24492296 306.75643905 C379.84584918 306.75336116 381.4468057 306.75703118 383.04769621 306.7681592 C392.26507295 306.82798312 399.47728049 306.75819855 406.82373524 300.54633141 C407.26975086 299.99719078 407.71576649 299.44805016 408.17529774 298.88226891 C408.63678211 298.33828453 409.09826649 297.79430016 409.57373524 297.23383141 C413.14145127 291.48458201 413.08732421 285.74833331 413.06099415 279.21249962 C413.0648197 278.20438016 413.06864524 277.19626071 413.07258672 276.15759218 C413.0829009 272.78142218 413.07892751 269.40542275 413.07495594 266.02924156 C413.07930329 263.6078685 413.08448651 261.18649682 413.09044361 258.76512718 C413.10245093 252.8717144 413.10498525 246.97834389 413.10264335 241.08492352 C413.10085908 236.29346317 413.10261216 231.50201664 413.10686779 226.71055794 C413.10776057 225.68697068 413.10776057 225.68697068 413.10867139 224.6427049 C413.10988317 223.25634095 413.1110973 221.869977 413.11231377 220.48361306 C413.12318642 207.48657094 413.12102818 194.48955478 413.11492892 181.4925112 C413.1097606 169.60955554 413.12101345 157.72668188 413.14002714 145.84374245 C413.15941223 133.63485213 413.16766033 121.42600059 413.16390389 109.21709478 C413.16199279 102.36573931 413.16447049 95.51445363 413.17861843 88.66311073 C413.19178923 82.21987541 413.18926305 75.77676312 413.17620754 69.33352661 C413.17383977 66.96964716 413.1765836 64.6057562 413.18483067 62.24188995 C413.19528252 59.01307102 413.18720947 55.78480458 413.17451954 52.55600548 C413.18189382 51.6223367 413.18926811 50.68866792 413.19686586 49.72670615 C413.13201537 41.87408132 411.55256086 35.00953202 405.80029774 29.25726891 C399.89997375 25.17667101 395.21805147 24.13320505 388.14597416 24.12584114 C387.47515957 24.12378851 386.80434499 24.12173587 386.11320269 24.11962104 C383.85525721 24.11394632 381.59737264 24.11540887 379.33942127 24.11682701 C377.70824893 24.11424365 376.07707723 24.11123057 374.4459064 24.10782361 C369.95536231 24.09974701 365.46483419 24.09796367 360.9742837 24.09722614 C356.13434227 24.09537674 351.29440917 24.08782999 346.45447254 24.08109093 C335.86773416 24.06750254 325.28099957 24.06148214 314.69425392 24.05708027 C308.08557587 24.05431879 301.47689929 24.05008161 294.86822224 24.0455761 C276.57558376 24.03338293 258.28294645 24.0230836 239.99030399 24.019701 C238.23377238 24.01937165 238.23377238 24.01937165 236.44175528 24.01903565 C235.26791195 24.01881737 234.09406862 24.0185991 232.88465428 24.0183742 C230.5059495 24.01793074 228.12724471 24.01748417 225.74853992 24.01703453 C223.97865548 24.01670239 223.97865548 24.01670239 222.1730158 24.01636353 C203.05067177 24.01241486 183.92836582 23.99495892 164.8060365 23.97167501 C145.17981434 23.94797016 125.55361131 23.93549955 105.9273746 23.93433309 C94.90538283 23.93341586 83.8834407 23.92765141 72.86146259 23.90951347 C63.47662969 23.89412421 54.09186176 23.8889851 44.70701864 23.89725158 C39.91822068 23.90116219 35.1295536 23.90020838 30.34077168 23.88619423 C25.95616731 23.87348015 21.57179253 23.87463088 17.1871886 23.88678494 C15.6017098 23.88874626 14.01621487 23.88564345 12.43075874 23.87694058 C-2.11669388 23.76562982 -2.11669388 23.76562982 -14.19970226 31.25726891 Z M145.80029774 331.25726891 C142.47552181 343.67174659 142.47552181 343.67174659 139.44092274 356.14789391 C139.24681812 356.98520042 139.05271351 357.82250694 138.85272694 358.68518639 C138.45165706 360.4187189 138.05184943 362.15254396 137.65332508 363.88666344 C137.04129797 366.54637962 136.42293544 369.20457403 135.80420399 371.86273766 C135.41189992 373.56186941 135.01995882 375.26108502 134.62842274 376.96039391 C134.44410694 377.75093163 134.25979115 378.54146935 134.06989002 379.35596275 C133.37727879 382.38752336 132.80029774 385.13653091 132.80029774 388.25726891 C174.71029774 388.25726891 216.62029774 388.25726891 259.80029774 388.25726891 C258.35865804 380.67795619 258.35865804 380.67795619 256.39575672 373.34589195 C256.1388657 372.52191414 255.88197468 371.69793633 255.61729908 370.84898949 C255.34639957 369.99758888 255.07550007 369.14618828 254.79639149 368.26898766 C254.51304447 367.36276161 254.22969746 366.45653557 253.93776417 365.52284813 C253.04259299 362.66194997 252.14068872 359.80323914 251.23779774 356.94476891 C250.33225183 354.06817309 249.42821861 351.19112335 248.52711964 348.31313133 C247.96899124 346.5314815 247.40819305 344.75066517 246.84434986 342.97081566 C246.590611 342.16259865 246.33687214 341.35438164 246.07544422 340.5216732 C245.85275364 339.81681282 245.63006306 339.11195244 245.40062428 338.38573265 C244.73954775 336.0418792 244.27789876 333.64527402 243.80029774 331.25726891 C211.46029774 331.25726891 179.12029774 331.25726891 145.80029774 331.25726891 Z " fill="#000000" transform="translate(59.19970226287842,49.74273109436035)"/>
<path d="M0 0 C0.69029297 -0.02900391 1.38058594 -0.05800781 2.09179688 -0.08789062 C7.26050182 -0.15158083 10.09258156 1.06762655 14.0625 4.3125 C24.39950569 18.2139904 17.59175875 50.43533925 17.0625 67.3125 C17.76105606 67.30361755 18.45961212 67.29473511 19.17933655 67.2855835 C25.78462577 67.20520751 32.38977715 67.1444195 38.99544621 67.10525131 C42.39097638 67.08443689 45.78610015 67.05623412 49.18139648 67.01074219 C53.09093243 66.95869211 57.00030773 66.93950382 60.91015625 66.921875 C62.12083267 66.90122986 63.33150909 66.88058472 64.57887268 66.85931396 C71.31480363 66.85752982 75.60970226 67.23188824 81.0625 71.3125 C84.1601785 74.51647139 84.99802416 78.03104265 85.21875 82.41796875 C84.37122991 101.16935083 77.68125834 118.40892262 65.0625 132.3125 C64.31226563 133.15554688 63.56203125 133.99859375 62.7890625 134.8671875 C49.87329743 148.61892442 30.94555003 157.93407638 11.94921875 158.74609375 C9.88294769 158.76976652 7.81630372 158.77062597 5.75 158.75 C4.65695557 158.74097656 3.56391113 158.73195313 2.43774414 158.72265625 C-16.49805158 158.31884217 -33.95815013 151.13916663 -47.9375 138.3125 C-48.69289063 137.64863281 -49.44828125 136.98476563 -50.2265625 136.30078125 C-64.21235625 123.30024101 -73.4254078 104.20127364 -74.2734375 85.0859375 C-74.69855089 59.89796898 -67.04958607 39.54399985 -49.828125 21.046875 C-36.5617269 8.37896102 -18.35542089 0.25564653 0 0 Z M-30.9375 38.3125 C-31.63746094 38.91964844 -32.33742188 39.52679688 -33.05859375 40.15234375 C-41.38667922 47.85070632 -48.14511626 59.91318944 -49.11450195 71.41210938 C-49.5824316 88.54840147 -47.12834807 102.19123217 -35.8359375 115.85546875 C-30.81741873 121.14885338 -25.39615431 124.96546362 -18.9375 128.3125 C-18.19628906 128.70308594 -17.45507812 129.09367187 -16.69140625 129.49609375 C-3.58634244 135.87342427 10.3566936 135.46264181 24.0625 131.3125 C37.93372317 125.49604392 49.46871716 115.72429715 55.6015625 101.82421875 C57.94673394 96.71668847 57.94673394 96.71668847 59.0625 91.3125 C37.03166394 91.15232054 15.08469438 91.62964126 -6.9375 92.3125 C-6.9375 70.5325 -6.9375 48.7525 -6.9375 26.3125 C-15.99376225 26.3125 -24.447397 32.50173488 -30.9375 38.3125 Z " fill="#000000" transform="translate(154.9375,149.6875)"/>
<path d="M0 0 C15.63242978 5.49528823 27.62395293 15.23286551 35.46484375 29.89453125 C40.47579772 40.42627462 43.57865511 52.93795799 40.2109375 64.515625 C37.94156322 68.81549206 34.71342884 71.15062851 30.15570068 72.59446716 C27.35905551 73.14418266 24.73101943 73.15066617 21.87988281 73.14477539 C20.65891907 73.14469986 19.43795532 73.14462433 18.17999268 73.14454651 C16.86633728 73.13938522 15.55268188 73.13422394 14.19921875 73.12890625 C12.83730115 73.12704021 11.47538287 73.12561718 10.11346436 73.12461853 C6.53617486 73.12080803 2.95892623 73.11099032 -0.61834717 73.09991455 C-4.27160082 73.08966884 -7.92486111 73.08511415 -11.578125 73.08007812 C-18.74090401 73.06936669 -25.90364939 73.05230794 -33.06640625 73.03125 C-33.13598007 64.64268815 -33.18925477 56.25424727 -33.22184277 47.86546803 C-33.23748503 43.97002264 -33.25869666 40.07477497 -33.29272461 36.17944336 C-33.32536993 32.41876475 -33.3432701 28.65827606 -33.35103798 24.89746666 C-33.35657225 23.46415913 -33.36737946 22.03086174 -33.38359642 20.59763527 C-33.4054368 18.58708497 -33.40663222 16.57634272 -33.40698242 14.56567383 C-33.41364426 13.42205887 -33.42030609 12.27844391 -33.4271698 11.10017395 C-32.87198514 6.37735894 -31.02550134 3.87338227 -27.50390625 0.78125 C-19.92611312 -4.65921686 -8.51660898 -2.44301134 0 0 Z M-9.06640625 24.03125 C-9.06640625 31.95125 -9.06640625 39.87125 -9.06640625 48.03125 C-1.14640625 48.03125 6.77359375 48.03125 14.93359375 48.03125 C13.26404707 39.6835166 8.52525723 33.3776711 1.93359375 28.03125 C-1.72186897 25.74911029 -4.71050893 24.03125 -9.06640625 24.03125 Z " fill="#000000" transform="translate(218.06640625,131.96875)"/>
<path d="M0 0 C3.55051524 2.84041219 5.3223043 5.30242487 6.1875 9.75 C6.2816156 11.57587827 6.3223236 13.40481488 6.32794189 15.23310852 C6.33650711 16.90480606 6.33650711 16.90480606 6.34524536 18.61027527 C6.34636322 19.82854507 6.34748108 21.04681488 6.34863281 22.30200195 C6.35359772 23.58856689 6.35856262 24.87513184 6.36367798 26.20068359 C6.37677894 29.72766325 6.3832424 33.2546239 6.38768864 36.78162408 C6.39062303 38.98680071 6.39472853 41.19197219 6.39919281 43.39714622 C6.41286155 50.30147283 6.42253131 57.2057876 6.4263947 64.11012679 C6.43087434 72.07125277 6.4484204 80.03220696 6.4773953 87.99328071 C6.49903364 94.15308364 6.50910012 100.31283832 6.51043582 106.47267884 C6.51148229 110.14888411 6.51735634 113.82492776 6.53525543 117.50109291 C6.55484483 121.60410563 6.5504386 125.7067601 6.54394531 129.80981445 C6.5531601 131.02201157 6.56237488 132.23420868 6.5718689 133.48313904 C6.53727416 140.45857702 6.37342433 146.21008407 1.5 151.625 C-1.85615828 153.25772565 -5.11172416 153.87835061 -8.8125 153.75 C-12.45875477 152.37405481 -15.37340931 150.83095666 -17.8125 147.75 C-18.85115481 144.63403558 -18.94580012 142.4594535 -18.95967102 139.19059753 C-18.96682632 138.03399124 -18.97398163 136.87738495 -18.98135376 135.68572998 C-18.98404266 134.41554016 -18.98673157 133.14535034 -18.98950195 131.83666992 C-18.99576798 130.48637213 -19.00241491 129.13607605 -19.00941467 127.78578186 C-19.0304393 123.35068967 -19.04081492 118.91559719 -19.05078125 114.48046875 C-19.05482927 112.9529398 -19.05894621 111.42541104 -19.06313133 109.89788246 C-19.08217877 102.72178422 -19.09641125 95.54569624 -19.1047433 88.36957759 C-19.11451726 80.08860291 -19.14084256 71.80789543 -19.18124419 63.52701491 C-19.2114093 57.12436356 -19.2262125 50.7217888 -19.22952431 44.31906778 C-19.23187419 40.49583186 -19.24082627 36.67288154 -19.26598549 32.84972191 C-19.28927872 29.25206382 -19.29349478 25.65487912 -19.28322411 22.05716515 C-19.28249331 20.11168743 -19.30157538 18.16623368 -19.32128906 16.22085571 C-19.25780037 5.56842972 -19.25780037 5.56842972 -14.8125 0.75 C-10.56296153 -2.58892308 -4.69086108 -2.08482715 0 0 Z " fill="#000000" transform="translate(318.8125,142.25)"/>
<path d="M0 0 C4.41751635 2.33868513 6.89767042 4.48001161 9 9 C9.29067718 11.98238425 9.42053164 14.75377186 9.40405273 17.73413086 C9.41091599 18.60304459 9.41777924 19.47195831 9.42485046 20.36720276 C9.44311903 23.23325034 9.43928085 26.09875055 9.43359375 28.96484375 C9.43815556 30.96114785 9.44346113 32.95745037 9.44947815 34.95375061 C9.4584094 39.1358173 9.45598597 43.31769302 9.44604492 47.49975586 C9.43455601 52.85430064 9.45476563 58.20818587 9.48396206 63.562644 C9.50232409 67.68482132 9.50203156 71.80684059 9.49632454 75.92904854 C9.49617132 77.90297941 9.50221604 79.87692099 9.51461601 81.85081291 C9.52952394 84.6131188 9.51885045 87.37420637 9.50170898 90.13647461 C9.51137695 90.9486142 9.52104492 91.76075378 9.53100586 92.59750366 C9.46292002 97.84750379 8.47323334 100.83455134 5 105 C1.58015724 107.40943467 -0.95135056 108.24719111 -5.0625 107.9375 C-8.93231635 107.24936822 -11.26398919 105.89695262 -14 103 C-16.32844286 98.60415848 -16.28978889 94.30770487 -16.2746582 89.44946289 C-16.27976913 88.6000563 -16.28488007 87.75064972 -16.29014587 86.87550354 C-16.30401826 84.07448229 -16.30308693 81.27370772 -16.30078125 78.47265625 C-16.30466936 76.52119353 -16.30900427 74.56973166 -16.31376648 72.61827087 C-16.32122355 68.5303981 -16.32094104 64.44261171 -16.31567383 60.35473633 C-16.30987875 55.12137114 -16.32681368 49.88835982 -16.3500185 44.65505314 C-16.36476393 40.62554362 -16.36562645 36.59611917 -16.36250877 32.56658745 C-16.36302154 30.63731625 -16.36825088 28.70804023 -16.37832069 26.77879524 C-16.39068394 24.07894134 -16.38389422 21.37977488 -16.37231445 18.67993164 C-16.37995819 17.88649353 -16.38760193 17.09305542 -16.39547729 16.27557373 C-16.34986817 11.45433203 -15.61647071 8.19944908 -13 4 C-9.02495859 0.39761872 -5.31216025 -0.52080002 0 0 Z " fill="#000000" transform="translate(363,188)"/>
<path d="M0 0 C3.4353914 2.9446212 4.48451616 4.74182115 4.90588379 9.26545715 C4.9263678 11.03248238 4.9263678 11.03248238 4.94726562 12.83520508 C4.95719543 13.48778793 4.96712524 14.14037079 4.97735596 14.81272888 C5.0064912 16.96503976 5.02018465 19.11705582 5.03125 21.26953125 C5.0427624 22.77162173 5.05427775 24.27371218 5.0657959 25.77580261 C5.0867855 28.92387251 5.09849037 32.07184072 5.10546875 35.2199707 C5.11642912 39.24191863 5.16447156 43.26250914 5.22141266 47.28403187 C5.2587771 50.38713935 5.26908236 53.48992354 5.2721405 56.59323692 C5.27817041 58.07517603 5.29414981 59.557111 5.32051086 61.0388279 C5.53552269 74.05394971 5.53552269 74.05394971 1.83007812 78.64331055 C-0.90418058 81.33557877 -3.53458576 82.30688068 -7.3515625 82.453125 C-10.8536934 82.10155974 -13.36043376 81.02327426 -16.375 79.25 C-19.38583956 75.30957521 -19.75699745 72.32454273 -19.77905273 67.42773438 C-19.78591599 66.76203934 -19.79277924 66.0963443 -19.79985046 65.41047668 C-19.81807468 63.22134767 -19.81428808 61.03293821 -19.80859375 58.84375 C-19.81315726 57.31587492 -19.81846334 55.78800189 -19.82447815 54.26013184 C-19.83340028 51.06249639 -19.83099602 47.86511082 -19.82104492 44.66748047 C-19.80954836 40.57501012 -19.82978086 36.48340175 -19.85896206 32.39104462 C-19.87732909 29.23739164 -19.87703081 26.08394513 -19.87132454 22.93025208 C-19.87117143 21.42160329 -19.87720758 19.91294042 -19.88961601 18.40434265 C-19.90453728 16.29310357 -19.89384405 14.18345576 -19.87670898 12.07226562 C-19.87654282 10.87267212 -19.87637665 9.67307861 -19.87620544 8.43713379 C-19.1842751 4.03719242 -17.14529324 1.57771993 -13.625 -1.0625 C-8.45422388 -2.64245937 -4.70125936 -2.43769004 0 0 Z " fill="#000000" transform="translate(414.375,213.75)"/>
</svg>
