<?xml version="1.0" encoding="UTF-8"?>
<svg version="1.1" xmlns="http://www.w3.org/2000/svg" width="512" height="512">
<path d="M0 0 C1.08995773 -0.00855011 1.08995773 -0.00855011 2.20193481 -0.01727295 C3.7364967 -0.02667019 5.27107829 -0.03323579 6.80566406 -0.03710938 C9.09218309 -0.0467045 11.37775794 -0.07773065 13.6640625 -0.109375 C27.4706516 -0.20933769 40.77126072 1.72859364 54.0078125 5.765625 C54.82507813 6.01393066 55.64234375 6.26223633 56.484375 6.51806641 C80.11581512 14.07348315 99.15346931 27.56253722 117.2578125 44.203125 C120.87256297 42.66934326 123.20379269 40.48691752 126.0078125 37.765625 C149.83013159 15.54015083 184.21820419 0.20605505 217 0 C218.08995773 -0.00855011 218.08995773 -0.00855011 219.20193481 -0.01727295 C220.7364967 -0.02667019 222.27107829 -0.03323579 223.80566406 -0.03710938 C226.09218309 -0.0467045 228.37775794 -0.07773065 230.6640625 -0.109375 C244.4706516 -0.20933769 257.77126072 1.72859364 271.0078125 5.765625 C271.82507813 6.01393066 272.64234375 6.26223633 273.484375 6.51806641 C287.99817945 11.1584032 302.06674864 18.03649046 314.2578125 27.203125 C315.08925781 27.82574219 315.92070312 28.44835937 316.77734375 29.08984375 C343.73610964 50.02003522 364.56526096 77.49471117 372.2578125 111.203125 C372.44110107 111.99380371 372.62438965 112.78448242 372.81323242 113.59912109 C374.48429489 121.63844799 374.69896156 129.64822493 374.6953125 137.828125 C374.69641525 138.90844498 374.69641525 138.90844498 374.69754028 140.0105896 C374.59594928 178.17774908 359.0865113 213.7466055 338.2578125 245.203125 C337.81759766 245.87311523 337.37738281 246.54310547 336.92382812 247.23339844 C327.25799911 261.85913826 316.53993137 275.79121839 305.2578125 289.203125 C304.81115234 289.73470215 304.36449219 290.2662793 303.90429688 290.81396484 C297.07590257 298.91979556 290.04654696 306.80621935 282.80419922 314.54345703 C281.25950933 316.20130387 279.72810763 317.87054954 278.19921875 319.54296875 C270.78469053 327.61950842 263.12506357 335.44222904 255.3828125 343.203125 C254.89058197 343.69794373 254.39835144 344.19276245 253.89120483 344.70257568 C248.71867215 349.89658369 243.49788942 354.9780543 237.92919922 359.75 C235.763363 361.63300572 233.75557657 363.64389126 231.7578125 365.703125 C228.51524991 368.98415868 225.18734228 372.05772496 221.6875 375.05859375 C218.31237036 378.03760689 215.04014888 381.12257488 211.7578125 384.203125 C207.30453743 388.3788173 202.83818881 392.51654017 198.2109375 396.5 C195.69168974 398.69678405 193.22678254 400.95002119 190.7578125 403.203125 C187.63874239 406.04836728 184.51025859 408.8751208 181.3203125 411.640625 C177.37113883 415.07081076 173.52758945 418.61316018 169.67993164 422.15600586 C166.9030488 424.70852953 164.10809235 427.23288246 161.2578125 429.703125 C155.27413072 434.89557613 149.48441574 440.30710851 143.65966797 445.67626953 C125.5677422 462.34878587 125.5677422 462.34878587 118.5078125 462.515625 C117.48171875 462.55300781 116.455625 462.59039062 115.3984375 462.62890625 C109.07810275 461.77204495 105.14983692 457.31406527 100.8828125 452.890625 C97.23441704 449.15940907 93.5199448 445.59904824 89.55078125 442.2109375 C86.38944638 439.44274989 83.32851277 436.57110021 80.2578125 433.703125 C76.00144704 429.731931 71.72077868 425.81066235 67.3125 422.0078125 C64.58856463 419.61530653 61.92441264 417.15903081 59.2578125 414.703125 C55.2992645 411.05890339 51.30604275 407.46398596 47.2421875 403.9375 C43.20406559 400.40811786 39.23866569 396.79678274 35.2578125 393.203125 C33.59140399 391.70283821 31.92473897 390.20283628 30.2578125 388.703125 C29.42636719 387.95417969 28.59492188 387.20523437 27.73828125 386.43359375 C26.13932605 384.99579309 24.53794236 383.56068627 22.93359375 382.12890625 C15.95035226 375.88438782 9.10474397 369.49792288 2.27294922 363.08886719 C0.29539222 361.23829168 -1.68939435 359.39577707 -3.67578125 357.5546875 C-12.23350687 349.59659401 -20.59463591 341.45570176 -28.8671875 333.203125 C-29.35864258 332.71425812 -29.85009766 332.22539124 -30.35644531 331.72171021 C-35.45971318 326.63972735 -40.44988586 321.52245968 -45.13720703 316.05322266 C-47.86594231 312.90774715 -50.7534502 309.9126553 -53.6171875 306.890625 C-58.39602018 301.80400735 -62.99417343 296.64752669 -67.34765625 291.1875 C-69.19921868 288.87984307 -71.07481561 286.60612909 -72.98046875 284.34375 C-81.12319825 274.65007812 -88.66700357 264.70108325 -95.7421875 254.203125 C-96.21253418 253.50719238 -96.68288086 252.81125977 -97.16748047 252.09423828 C-104.30578489 241.46686274 -110.81220541 230.54954497 -116.7421875 219.203125 C-117.13148437 218.45869141 -117.52078125 217.71425781 -117.921875 216.94726562 C-135.43653987 182.94648164 -145.61699782 140.77484286 -133.7421875 103.203125 C-133.53319824 102.52620605 -133.32420898 101.84928711 -133.10888672 101.15185547 C-128.10481227 85.44243523 -120.20955245 70.9218975 -109.7421875 58.203125 C-109.29504395 57.65060059 -108.84790039 57.09807617 -108.38720703 56.52880859 C-82.20449947 24.2880355 -42.52992546 0.26732843 0 0 Z M-66.7421875 61.203125 C-67.57234375 61.88890625 -68.4025 62.5746875 -69.2578125 63.28125 C-88.12119052 79.29732568 -102.74702446 103.57458831 -105.04370117 128.47167969 C-105.17792926 131.76361724 -105.21043433 135.03365059 -105.1796875 138.328125 C-105.17066406 139.50463623 -105.16164062 140.68114746 -105.15234375 141.89331055 C-104.34353412 183.06677594 -80.53712931 220.83300632 -55.7421875 252.203125 C-55.10539062 253.01910156 -54.46859375 253.83507812 -53.8125 254.67578125 C-46.1902576 264.33368277 -38.198775 273.70304302 -29.921875 282.8046875 C-28.43856387 284.4368614 -26.96493358 286.07787418 -25.5 287.7265625 C-21.1000082 292.67465017 -16.5654948 297.41358746 -11.8515625 302.0625 C-9.93407264 304.00839712 -8.14018535 306.00118466 -6.3671875 308.078125 C-0.71611983 314.64699948 5.46543803 320.90289905 12.0703125 326.515625 C16.63385345 330.40169183 20.79367106 334.68599877 24.98364258 338.96606445 C28.59303151 342.62899446 32.33031817 346.06201477 36.22265625 349.421875 C40.34323648 353.02837133 44.28292981 356.83238651 48.2578125 360.59765625 C52.25123225 364.36488621 56.30859184 368.0364929 60.45410156 371.63574219 C62.70389927 373.59076401 64.92084388 375.58046476 67.1328125 377.578125 C67.97585937 378.33867187 68.81890625 379.09921875 69.6875 379.8828125 C70.53570312 380.64851563 71.38390625 381.41421875 72.2578125 382.203125 C73.92422101 383.70341179 75.59088603 385.20341372 77.2578125 386.703125 C79.78281743 388.9748379 82.30694554 391.24747914 84.828125 393.5234375 C88.57345506 396.90225208 92.32299457 400.27208465 96.1328125 403.578125 C100.14882894 407.07066883 104.05954041 410.67422041 107.95849609 414.29638672 C110.95990762 417.07007051 114.03649206 419.68849278 117.2578125 422.203125 C121.34160591 420.85139653 123.63464769 419.13376258 126.5703125 416.015625 C129.93070043 412.53917104 133.36077446 409.29539318 137.02734375 406.1484375 C139.81647081 403.71588885 142.53698799 401.21133886 145.2578125 398.703125 C149.16739703 395.10274921 153.11648325 391.55894368 157.1328125 388.078125 C159.87604744 385.65762358 162.56662493 383.18108322 165.2578125 380.703125 C169.21911466 377.05646552 173.21572539 373.45983438 177.28125 369.9296875 C184.8656408 363.30458723 192.26758719 356.4713838 199.67822266 349.65332031 C201.27819639 348.18441089 202.8828767 346.72078266 204.48828125 345.2578125 C210.502834 339.76125951 216.360507 334.15401971 222.08544922 328.35620117 C225.35368085 325.06128787 228.73599005 321.98528514 232.26171875 318.97265625 C238.40633334 313.52547346 244.01856187 307.56820552 249.34765625 301.33203125 C251.71972047 298.68831959 254.23083962 296.19694331 256.7578125 293.703125 C261.14173939 289.36473396 265.25691623 284.894372 269.2578125 280.203125 C270.23308031 279.09001015 271.20977989 277.97814896 272.1875 276.8671875 C308.73670116 235.24140415 344.19777974 186.01157014 341.48095703 128.234375 C340.18542316 110.63552536 332.02547521 93.9201018 321.2578125 80.203125 C320.80776855 79.62820312 320.35772461 79.05328125 319.89404297 78.4609375 C300.67274775 54.26759305 273.29744585 37.06813711 242.2578125 33.203125 C212.77518805 29.98850863 182.37517848 36.58738858 158.2890625 54.3984375 C155.55144249 56.60545138 152.8936215 58.87576173 150.2578125 61.203125 C149.45085937 61.90050781 148.64390625 62.59789063 147.8125 63.31640625 C144.0583133 66.6179177 140.43020977 69.99792132 136.953125 73.58984375 C136.38190918 74.17668945 135.81069336 74.76353516 135.22216797 75.36816406 C134.10467617 76.52353154 132.99639236 77.68789887 131.89892578 78.86230469 C127.94000161 82.9609847 124.59069327 84.90535979 118.765625 85.42578125 C111.46991279 84.93541371 108.20576633 82.37751062 103.2578125 77.203125 C78.13773257 51.39674927 49.88736139 33.43791184 12.78515625 32.203125 C-16.6056298 31.8409943 -44.68764327 41.82185885 -66.7421875 61.203125 Z " fill="#000000" transform="translate(137.7421875,24.796875)"/>
</svg>
