<?xml version="1.0" encoding="UTF-8"?>
<svg version="1.1" xmlns="http://www.w3.org/2000/svg" width="512" height="512">
<path d="M0 0 C1.57929005 -0.0070184 3.1585798 -0.01410525 4.73786926 -0.02125549 C9.76144817 -0.04067781 14.78498109 -0.04568965 19.80859375 -0.046875 C21.09093273 -0.04753778 21.09093273 -0.04753778 22.39917755 -0.04821396 C46.7368415 -0.05481646 70.94807577 0.00890008 95.14245605 2.94989014 C97.37023991 3.21806965 99.59937185 3.4716796 101.82910156 3.72314453 C205.73643088 15.54601832 205.73643088 15.54601832 239.24609375 54.640625 C253.70868193 73.1708161 260.31539918 93.0139596 264.68359375 115.828125 C264.83227905 116.59813843 264.98096436 117.36815186 265.13415527 118.16149902 C272.48127237 156.42243752 277.33999361 195.72104447 277.44921875 234.703125 C277.45623844 236.25718719 277.46332528 237.81124907 277.47047424 239.36531067 C277.48990097 244.31125292 277.49490882 249.25714846 277.49609375 254.203125 C277.49653561 255.04528439 277.49697746 255.88744377 277.49743271 256.75512314 C277.50418332 281.27485458 277.37444322 305.66462563 274.49932861 330.0480957 C274.23347611 332.31050113 273.97922727 334.57403108 273.72607422 336.83789062 C261.7245384 442.86628714 261.7245384 442.86628714 219.4453125 476.85546875 C185.99169285 501.40446193 139.73050177 504.38372529 99.56896973 508.93884277 C98.06823698 509.10958671 96.5678027 509.28298432 95.06774902 509.45959473 C47.02381215 515.11133249 -4.54765407 515.09721936 -52.59173584 509.45635986 C-54.85802938 509.19093003 -57.12540416 508.93655873 -59.39306641 508.68310547 C-165.36312194 496.68886491 -165.36312194 496.68886491 -199.47265625 454.2734375 C-212.5678 436.6488091 -218.13227545 417.7755197 -222.19140625 396.578125 C-222.4144342 395.42360336 -222.4144342 395.42360336 -222.64196777 394.24575806 C-230.02043047 355.84073207 -234.84886515 316.48325458 -234.95703125 277.3515625 C-234.96405164 275.7737017 -234.97113848 274.19584119 -234.97828674 272.61798096 C-234.99768698 267.60469148 -235.00272049 262.59144823 -235.00390625 257.578125 C-235.00434811 256.72462212 -235.00478996 255.87111923 -235.00524521 254.99175262 C-235.01184906 230.68049472 -234.95353056 206.49079191 -232.01037598 182.32293701 C-231.73692974 180.06280821 -231.47658594 177.80140002 -231.21777344 175.53955078 C-228.64504435 153.26112882 -225.09843931 131.20203231 -220.75390625 109.203125 C-220.56441406 108.22859375 -220.37492188 107.2540625 -220.1796875 106.25 C-214.04503403 75.06935527 -196.90599616 48.93274972 -170.44140625 31.015625 C-126.28369246 2.08223904 -51.41031562 0.1415962 0 0 Z M-103.75390625 135.203125 C-103.75390625 136.193125 -103.75390625 137.183125 -103.75390625 138.203125 C-101.55288568 139.74201484 -101.55288568 139.74201484 -98.75390625 141.203125 C-81.61781819 151.73490768 -74.51164495 176.07404286 -67.37890625 193.890625 C-66.49958562 196.06871796 -65.61936069 198.24644604 -64.73828125 200.42382812 C-62.93972376 204.87025511 -61.14480351 209.31812276 -59.35253906 213.76708984 C-55.88369783 222.36927083 -52.36750295 230.95191826 -48.84832764 239.53359985 C-47.00204269 244.03707919 -45.15924207 248.54198341 -43.31640625 253.046875 C-42.76211441 254.40169731 -42.76211441 254.40169731 -42.19662476 255.78388977 C-37.28868537 267.78206886 -32.3922873 279.78496213 -27.4954834 291.78768921 C-22.92630842 302.98728182 -18.35383107 314.18549485 -13.76953125 325.37890625 C-13.36569214 326.36514984 -12.96185303 327.35139343 -12.54577637 328.36752319 C-10.33883748 333.75703149 -8.13081708 339.14609271 -5.92041016 344.53417969 C-1.47439262 355.40306091 2.88424751 366.2985094 7.24609375 377.203125 C21.76609375 377.203125 36.28609375 377.203125 51.24609375 377.203125 C50.91609375 373.573125 50.58609375 369.943125 50.24609375 366.203125 C50.92379576 357.00164988 53.74060775 348.31923123 56.796875 339.66796875 C57.14727844 338.66932297 57.49768188 337.67067719 57.85870361 336.64176941 C61.85336374 325.34936745 66.16350196 314.18163534 70.49609375 303.015625 C71.37223971 300.74861355 72.247962 298.48143833 73.12329102 296.21411133 C74.93290037 291.52783543 76.74428465 286.84225199 78.55712891 282.15722656 C82.36844162 272.30457593 86.16231027 262.44522665 89.9543457 252.58514404 C91.18368802 249.39038002 92.41492932 246.19635301 93.64648438 243.00244141 C97.86242666 232.0603732 102.04558538 221.10677197 106.17585945 210.13210106 C107.82241424 205.76044389 109.47572234 201.39133323 111.12747192 197.02163696 C112.02631642 194.63696424 112.9215147 192.25091336 113.81271362 189.8633728 C129.9026674 146.76143487 129.9026674 146.76143487 144.77734375 139.23828125 C145.504375 138.72587891 145.504375 138.72587891 146.24609375 138.203125 C146.24609375 137.213125 146.24609375 136.223125 146.24609375 135.203125 C125.45609375 135.203125 104.66609375 135.203125 83.24609375 135.203125 C84.12732592 139.20280028 84.12732592 139.20280028 85.80859375 142.765625 C92.35509574 160.42821701 80.17953337 183.26868663 74.12109375 199.640625 C73.22924823 202.06906715 72.33814673 204.49778265 71.44775391 206.92675781 C69.62077859 211.90647924 67.78907425 216.88442008 65.953125 221.86083984 C63.38523709 228.8218009 60.82949195 235.78716161 58.27734375 242.75390625 C50.64282286 263.58600231 42.97722866 284.40667058 35.24609375 305.203125 C32.32584016 302.28287141 31.37026718 298.62466612 29.96484375 294.81640625 C29.63946625 293.94865067 29.31408875 293.08089508 28.97885132 292.18684387 C28.27016585 290.2952969 27.56392289 288.40283347 26.85980225 286.50958252 C24.95016154 281.37593834 23.02225365 276.24914489 21.09765625 271.12109375 C20.69813751 270.0549585 20.29861877 268.98882324 19.88699341 267.89038086 C16.05215083 257.66362157 12.15822021 247.45992414 8.24658203 237.2623291 C7.12176468 234.32987416 5.99828723 231.39690854 4.875 228.46386719 C1.57518207 219.85218017 -1.73376942 211.24419074 -5.06954956 202.6463623 C-6.46950085 199.03799881 -7.86649469 195.42849274 -9.26361084 191.81903076 C-10.22568766 189.33838461 -11.19302544 186.85983602 -12.16064453 184.38134766 C-12.7440647 182.8754222 -13.32724905 181.36940534 -13.91015625 179.86328125 C-14.17073822 179.20085922 -14.43132019 178.53843719 -14.69979858 177.85594177 C-17.52475621 170.52088289 -19.14402455 163.5601939 -19.12890625 155.703125 C-19.1297522 154.58611206 -19.1297522 154.58611206 -19.13061523 153.4465332 C-19.01559558 147.72132004 -17.89861068 144.06312276 -14.75390625 139.203125 C-14.42390625 137.883125 -14.09390625 136.563125 -13.75390625 135.203125 C-43.45390625 135.203125 -73.15390625 135.203125 -103.75390625 135.203125 Z " fill="#000000" transform="translate(234.75390625,-0.203125)"/>
</svg>
